<svg width="24" height="25" viewBox="0 0 24 25" fill="none" xmlns="http://www.w3.org/2000/svg">
<path fill-rule="evenodd" clip-rule="evenodd" d="M3.51057 10.2885L2.43627 13.8779C2.33828 14.2053 2.4456 14.5639 2.70214 14.7663L12.0004 22.1L3.51057 10.2885Z" fill="#FCA326"/>
<path fill-rule="evenodd" clip-rule="evenodd" d="M20.4898 10.2885L21.5641 13.8779C21.6621 14.2053 21.5548 14.5639 21.2983 14.7663L12 22.1L20.4898 10.2885Z" fill="#FCA326"/>
<path fill-rule="evenodd" clip-rule="evenodd" d="M12.0006 22.1L8.46532 10.2885H3.51074L12.0006 22.1Z" fill="#FC6D26"/>
<path fill-rule="evenodd" clip-rule="evenodd" d="M12 22.1L15.5353 10.2885H20.4898L12 22.1Z" fill="#FC6D26"/>
<path fill-rule="evenodd" clip-rule="evenodd" d="M20.4897 10.2885H15.5352L17.6645 3.17456C17.774 2.80846 18.251 2.80856 18.3605 3.17456L20.4897 10.2885Z" fill="#E24329"/>
<path fill-rule="evenodd" clip-rule="evenodd" d="M3.51074 10.2885H8.46531L6.33602 3.17456C6.2265 2.80846 5.74946 2.80856 5.63995 3.17456L3.51074 10.2885Z" fill="#E24329"/>
<path fill-rule="evenodd" clip-rule="evenodd" d="M12.0001 22.1L15.5354 10.2885H8.46484L12.0001 22.1Z" fill="#E24329"/>
</svg>
