<svg width="24" height="25" viewBox="0 0 24 25" fill="none" xmlns="http://www.w3.org/2000/svg">
<path d="M6.98918 14.3777L6.36263 16.7167L4.07258 16.7651C3.3882 15.4957 3 14.0434 3 12.5C3 11.0076 3.36295 9.60025 4.00631 8.36102H4.0068L6.04559 8.7348L6.9387 10.7614C6.75177 11.3063 6.64989 11.8913 6.64989 12.5C6.64996 13.1607 6.76963 13.7937 6.98918 14.3777Z" fill="#FBBB00"/>
<path d="M20.8431 10.8187C20.9465 11.3631 21.0004 11.9253 21.0004 12.5C21.0004 13.1443 20.9326 13.7728 20.8036 14.3791C20.3655 16.4422 19.2207 18.2437 17.6348 19.5185L17.6343 19.518L15.0664 19.387L14.7029 17.1182C15.7552 16.501 16.5776 15.5353 17.0108 14.3791H12.1982V10.8187H17.081H20.8431Z" fill="#518EF8"/>
<path d="M17.6336 19.5181L17.6341 19.5185C16.0917 20.7583 14.1325 21.5 11.9997 21.5C8.57227 21.5 5.59239 19.5843 4.07227 16.7651L6.98886 14.3777C7.74891 16.4061 9.70567 17.8501 11.9997 17.8501C12.9857 17.8501 13.9095 17.5835 14.7021 17.1182L17.6336 19.5181Z" fill="#28B446"/>
<path d="M17.7442 5.57197L14.8286 7.95894C14.0082 7.44615 13.0385 7.14992 11.9995 7.14992C9.65361 7.14992 7.66025 8.66013 6.93828 10.7613L4.00635 8.36098H4.00586C5.50373 5.47307 8.52119 3.5 11.9995 3.5C14.1833 3.5 16.1855 4.27787 17.7442 5.57197Z" fill="#F14336"/>
</svg>
