<svg width="200" height="49" viewBox="0 0 200 49" fill="none" xmlns="http://www.w3.org/2000/svg">
<g clip-path="url(#clip0_247_1504)">
<path d="M45.2317 10.8415C45.2167 10.0271 44.9334 8.29873 44.6194 7.56726C44.3054 6.83579 43.8792 6.20614 43.3409 5.67827C42.7876 5.15041 42.1558 4.73944 41.4455 4.44534C40.7352 4.15125 39.9838 4.0042 39.1912 4.0042C34.1922 4.0042 30.443 4.0042 27.9435 4.0042C25.4428 4.0042 21.6918 4.0042 16.6904 4.0042V0H39.3034C40.6343 0 41.8941 0.248846 43.0829 0.746546C44.2717 1.24425 45.3147 1.94554 46.212 2.85045C47.1092 3.74027 47.8083 4.78467 48.3092 5.98368C48.8102 7.18268 49.2303 9.66137 49.2303 11.0037V12.9787H45.2317C45.2317 12.5342 45.2354 10.9224 45.2317 10.8415Z" fill="#933183"/>
<path d="M38.3113 45.0201C39.1295 45.0052 40.866 44.7232 41.601 44.4107C42.3359 44.0981 42.9685 43.6739 43.4988 43.1381C44.0292 42.5874 44.4421 41.9586 44.7376 41.2516C45.0331 40.5446 45.1808 39.7967 45.1808 39.0079V16.6126H49.2039V39.1195C49.2039 40.4442 48.9538 41.6981 48.4538 42.8814C47.9538 44.0646 47.2492 45.1027 46.34 45.9958C45.446 46.8888 44.3966 47.5846 43.192 48.0832C41.9873 48.5818 39.497 48.9999 38.1484 48.9999H36.1641V45.0201C36.6107 45.0201 38.23 45.0238 38.3113 45.0201Z" fill="white"/>
<path d="M3.99859 38.1313C4.01355 38.9457 4.29684 40.6741 4.61087 41.4055C4.92489 42.137 5.35107 42.7666 5.88941 43.2945C6.4427 43.8224 7.07448 44.2333 7.78479 44.5274C8.49509 44.8215 9.2465 44.9686 10.0391 44.9686H32.5398V48.9728H9.9269C8.59602 48.9728 7.33618 48.7239 6.14736 48.2262C4.95853 47.7285 3.91552 47.0272 3.0183 46.1223C2.12107 45.2325 1.42199 44.1881 0.921042 42.9891C0.420091 41.7901 0 39.3114 0 37.9691V35.9941H3.99859C3.99859 36.4386 3.99486 38.0504 3.99859 38.1313Z" fill="#76B515"/>
<path d="M13.0398 4.02538H10.8926C10.0743 4.04027 8.33781 4.32223 7.6029 4.63478C6.86799 4.94734 6.23536 5.37152 5.70502 5.90733C5.17467 6.45803 4.76176 7.08685 4.46628 7.79383C4.1708 8.5008 4.02306 9.24869 4.02306 10.0375C4.02306 13.0227 4.02306 15.2616 4.02306 16.7542C4.02306 20.2383 4.02306 25.4645 4.02306 32.4328C3.59794 32.4328 0.149844 32.4328 0 32.4328L0 9.9259C0 8.60125 0.250018 7.34732 0.750062 6.16407C1.25011 4.98082 1.9547 3.9427 2.86387 3.04968C3.75789 2.15666 4.80721 1.46086 6.01186 0.962257C7.21651 0.463654 9.70688 0.0455322 11.0555 0.0455322C11.1973 0.0455322 13.0398 0.0455322 13.0398 0.0455322C13.0398 1.14483 13.0398 3.17867 13.0398 4.02538Z" fill="#FD5C02"/>
<path d="M16.7158 20.2053C16.7158 19.3181 16.8861 18.4857 17.2266 17.7081C17.5672 16.9305 18.0279 16.2526 18.6088 15.6744C19.1998 15.0862 19.8859 14.6226 20.6671 14.2837C21.4484 13.9447 22.2847 13.7753 23.1762 13.7753H33.062V18.067H23.1762C22.8757 18.067 22.5952 18.1218 22.3348 18.2314C22.0744 18.3411 21.844 18.4956 21.6437 18.695C21.4534 18.8844 21.3032 19.1087 21.193 19.3679C21.0828 19.6271 21.0277 19.9062 21.0277 20.2053C21.0277 20.5044 21.0828 20.7885 21.193 21.0577C21.3032 21.3169 21.4534 21.5462 21.6437 21.7455C21.844 21.935 22.0744 22.0845 22.3348 22.1942C22.5952 22.3038 22.8757 22.3586 23.1762 22.3586H27.4881C28.3795 22.3586 29.2158 22.5281 29.9971 22.8671C30.7883 23.196 31.4744 23.6546 32.0554 24.2428C32.6463 24.821 33.107 25.5039 33.4376 26.2914C33.7781 27.069 33.9484 27.9014 33.9484 28.7887C33.9484 29.6759 33.7781 30.5084 33.4376 31.2859C33.107 32.0635 32.6463 32.7464 32.0554 33.3346C31.4744 33.9128 30.7883 34.3714 29.9971 34.7103C29.2158 35.0493 28.3795 35.2188 27.4881 35.2188H17.9177V30.9271H27.4881C27.7885 30.9271 28.069 30.8722 28.3294 30.7626C28.5898 30.6529 28.8152 30.5034 29.0055 30.314C29.2058 30.1146 29.3611 29.8853 29.4712 29.6261C29.5814 29.3669 29.6365 29.0878 29.6365 28.7887C29.6365 28.4896 29.5814 28.2105 29.4712 27.9513C29.3611 27.6921 29.2058 27.4678 29.0055 27.2784C28.8152 27.079 28.5898 26.9245 28.3294 26.8148C28.069 26.7052 27.7885 26.6503 27.4881 26.6503H23.1762C22.2847 26.6503 21.4484 26.4809 20.6671 26.1419C19.8859 25.803 19.1998 25.3444 18.6088 24.7662C18.0279 24.178 17.5672 23.4951 17.2266 22.7175C16.8861 21.93 16.7158 21.0926 16.7158 20.2053Z" fill="white"/>
</g>
<rect x="61.5391" y="4.62891" width="47.6923" height="18.375" rx="9.1875" fill="#00227B"/>
<path d="M72.0897 18.4102C71.2498 18.4102 70.458 18.2698 69.7144 17.9891C68.9795 17.7083 68.3627 17.317 67.864 16.8151C67.7502 16.713 67.6934 16.5897 67.6934 16.4451C67.6934 16.2664 67.7721 16.109 67.9296 15.9729C68.0433 15.8623 68.1702 15.807 68.3102 15.807C68.4939 15.807 68.682 15.8964 68.8745 16.075C69.2682 16.4493 69.7406 16.7385 70.2918 16.9427C70.8517 17.1384 71.451 17.2362 72.0897 17.2362C72.7371 17.2362 73.2358 17.1256 73.5858 16.9044C73.9445 16.6832 74.1238 16.3727 74.1238 15.9729C74.1238 15.5816 73.9401 15.2668 73.5726 15.0286C73.2052 14.7819 72.5796 14.565 71.696 14.3779C70.3924 14.1056 69.4475 13.7484 68.8613 13.306C68.2752 12.8551 67.9821 12.2766 67.9821 11.5706C67.9821 11.1112 68.1308 10.7029 68.4283 10.3456C68.7345 9.98828 69.1588 9.71181 69.7012 9.51615C70.2524 9.32049 70.8867 9.22266 71.6041 9.22266C72.409 9.22266 73.1308 9.35451 73.7695 9.61823C74.4169 9.88194 74.8937 10.2477 75.2 10.7156C75.2874 10.8517 75.3312 10.9836 75.3312 11.1112C75.3312 11.2984 75.2349 11.4557 75.0425 11.5833C74.9287 11.6514 74.815 11.6854 74.7013 11.6854C74.5963 11.6854 74.4913 11.6599 74.3863 11.6089C74.2813 11.5578 74.1938 11.4898 74.1238 11.4047C73.8701 11.0814 73.5202 10.8347 73.074 10.6646C72.6365 10.4859 72.1466 10.3966 71.6041 10.3966C70.9217 10.3966 70.3968 10.4987 70.0293 10.7029C69.6706 10.8985 69.4913 11.1878 69.4913 11.5706C69.4913 11.9279 69.6662 12.2214 70.0162 12.451C70.3662 12.6722 70.983 12.8806 71.8666 13.0763C73.2052 13.3826 74.1676 13.7611 74.7538 14.212C75.3399 14.6628 75.633 15.2498 75.633 15.9729C75.633 16.4578 75.4843 16.8874 75.1868 17.2617C74.8981 17.6275 74.4869 17.9125 73.9532 18.1167C73.4195 18.3123 72.7984 18.4102 72.0897 18.4102Z" fill="white"/>
<path d="M77.8525 18.4102C77.625 18.4102 77.4457 18.3506 77.3145 18.2315C77.1832 18.1124 77.1176 17.9465 77.1176 17.7339V11.124C77.1176 10.571 77.2838 10.1372 77.6163 9.8224C77.9488 9.50764 78.4125 9.35026 79.0074 9.35026H81.2384C82.5332 9.35026 83.5131 9.61398 84.178 10.1414C84.8517 10.6688 85.1885 11.4472 85.1885 12.4766C85.1885 13.4889 84.856 14.2588 84.1911 14.7862C83.535 15.3051 82.5726 15.5646 81.304 15.5646H78.6137V17.7339C78.6137 17.938 78.5437 18.1039 78.4037 18.2315C78.2637 18.3506 78.08 18.4102 77.8525 18.4102ZM81.2909 14.4161C82.8832 14.4161 83.6793 13.7696 83.6793 12.4766C83.6793 11.796 83.4781 11.2941 83.0756 10.9708C82.6819 10.6476 82.0914 10.4859 81.304 10.4859H79.2174C79.0249 10.4859 78.8761 10.5455 78.7712 10.6646C78.6662 10.7837 78.6137 10.9453 78.6137 11.1495V14.4161H81.2909Z" fill="white"/>
<path d="M88.6339 18.2826C88.0127 18.2826 87.5272 18.1252 87.1772 17.8104C86.836 17.4872 86.6654 17.0405 86.6654 16.4706V11.124C86.6654 10.571 86.8316 10.1372 87.1641 9.8224C87.4966 9.50764 87.9602 9.35026 88.5552 9.35026H92.6366C92.864 9.35026 93.039 9.4013 93.1615 9.50339C93.284 9.59696 93.3452 9.73733 93.3452 9.92448C93.3452 10.1031 93.284 10.2435 93.1615 10.3456C93.039 10.4391 92.864 10.4859 92.6366 10.4859H88.7652C88.5727 10.4859 88.4239 10.5455 88.319 10.6646C88.214 10.7837 88.1615 10.9453 88.1615 11.1495V13.1529H91.6392C91.8667 13.1529 92.0416 13.2039 92.1641 13.306C92.2866 13.3996 92.3478 13.5399 92.3478 13.7271C92.3478 13.9057 92.2866 14.0461 92.1641 14.1482C92.0416 14.2418 91.8667 14.2885 91.6392 14.2885H88.1615V16.4833C88.1615 16.6875 88.214 16.8491 88.319 16.9682C88.4239 17.0873 88.5727 17.1469 88.7652 17.1469H92.9253C93.1527 17.1469 93.3277 17.1979 93.4502 17.3C93.5727 17.3936 93.6339 17.5339 93.6339 17.7211C93.6339 17.8997 93.5727 18.0401 93.4502 18.1422C93.3277 18.2358 93.1527 18.2826 92.9253 18.2826H88.6339Z" fill="white"/>
<path d="M99.0491 18.4102C98.0867 18.4102 97.2468 18.2273 96.5294 17.8615C95.8207 17.4872 95.2739 16.9555 94.889 16.2664C94.5128 15.5773 94.3247 14.7649 94.3247 13.8292C94.3247 12.8934 94.5128 12.081 94.889 11.3919C95.2739 10.6944 95.8207 10.1584 96.5294 9.78411C97.2381 9.40981 98.0736 9.22266 99.036 9.22266C99.8234 9.22266 100.554 9.35451 101.228 9.61823C101.901 9.88194 102.409 10.2392 102.75 10.6901C102.846 10.8262 102.894 10.9496 102.894 11.0602C102.894 11.2473 102.794 11.4132 102.592 11.5578C102.479 11.6259 102.361 11.6599 102.238 11.6599C102.124 11.6599 102.011 11.6344 101.897 11.5833C101.792 11.5323 101.7 11.4642 101.621 11.3792C101.333 11.0389 100.974 10.7879 100.545 10.6263C100.125 10.4647 99.6221 10.3839 99.036 10.3839C98.0298 10.3839 97.2424 10.6901 96.6737 11.3026C96.1138 11.9066 95.8339 12.7488 95.8339 13.8292C95.8339 14.8925 96.1182 15.7305 96.6869 16.343C97.2556 16.947 98.043 17.249 99.0491 17.249C100.239 17.249 101.153 16.9172 101.792 16.2536C102.002 16.0495 102.216 15.9474 102.435 15.9474C102.575 15.9474 102.702 15.9899 102.816 16.075C102.99 16.2196 103.078 16.377 103.078 16.5471C103.078 16.6918 103.025 16.8279 102.92 16.9555C102.544 17.4063 102.015 17.7636 101.333 18.0273C100.65 18.2826 99.889 18.4102 99.0491 18.4102Z" fill="white"/>
<path d="M62.7893 44.4414C62.3495 44.4414 61.9976 44.328 61.7337 44.1011C61.4698 43.8743 61.3379 43.5624 61.3379 43.1654V32.4891C61.3379 31.4967 61.6311 30.724 62.2176 30.171C62.8187 29.6181 63.647 29.3416 64.7026 29.3416H68.4192C70.6477 29.3416 72.3411 29.7882 73.4993 30.6814C74.6576 31.5747 75.2367 32.8861 75.2367 34.6159C75.2367 36.3456 74.6722 37.6571 73.5433 38.5503C72.4144 39.4436 70.7504 39.8902 68.5512 39.8902H64.2628V43.1654C64.2628 43.5482 64.1235 43.8601 63.845 44.1011C63.5811 44.328 63.2292 44.4414 62.7893 44.4414ZM68.5292 37.6997C71.0363 37.6997 72.2898 36.6717 72.2898 34.6159C72.2898 32.56 71.0363 31.5321 68.5292 31.5321H65.2084C64.9152 31.5321 64.6806 31.6243 64.5047 31.8086C64.3434 31.9929 64.2628 32.2481 64.2628 32.5742V37.6997H68.5292Z" fill="white"/>
<path d="M77.4881 32.4891C77.4881 31.4967 77.7813 30.724 78.3678 30.171C78.9689 29.6181 79.7972 29.3416 80.8528 29.3416H84.7674C86.9519 29.3416 88.6013 29.7527 89.7155 30.5751C90.8298 31.3974 91.3869 32.6238 91.3869 34.2543C91.3869 35.7714 90.9177 36.9553 89.9794 37.806C89.0558 38.6567 87.8096 39.082 86.2408 39.082L89.5836 42.2934C89.8475 42.5486 89.9794 42.8393 89.9794 43.1654C89.9794 43.5056 89.8255 43.8034 89.5176 44.0586C89.195 44.2996 88.8798 44.4201 88.5719 44.4201C88.1468 44.4201 87.7583 44.2358 87.4064 43.8672L82.6562 39.1671H80.413V43.1654C80.413 43.5624 80.2737 43.8743 79.9952 44.1011C79.7166 44.328 79.3647 44.4414 78.9396 44.4414C78.4997 44.4414 78.1478 44.328 77.8839 44.1011C77.62 43.8743 77.4881 43.5624 77.4881 43.1654V32.4891ZM84.6794 36.9766C85.647 36.9766 86.4021 36.8844 86.9446 36.7001C87.487 36.5158 87.8682 36.2322 88.0881 35.8494C88.3227 35.4524 88.44 34.9207 88.44 34.2543C88.44 33.2902 88.1321 32.5955 87.5163 32.1701C86.9152 31.7448 85.9696 31.5321 84.6794 31.5321H81.3586C81.0654 31.5321 80.8308 31.6243 80.6549 31.8086C80.4936 31.9929 80.413 32.2481 80.413 32.5742V36.9766H84.6794Z" fill="white"/>
<path d="M101.085 44.4414C99.3696 44.4414 97.8888 44.1224 96.6426 43.4844C95.411 42.8322 94.4727 41.9319 93.8276 40.7834C93.1825 39.6208 92.86 38.288 92.86 36.7852C92.86 35.2823 93.1825 33.9566 93.8276 32.8082C94.4727 31.6455 95.411 30.7452 96.6426 30.1072C97.8888 29.455 99.3696 29.1289 101.085 29.1289C102.8 29.1289 104.274 29.455 105.505 30.1072C106.751 30.7452 107.697 31.6455 108.342 32.8082C108.987 33.9566 109.31 35.2823 109.31 36.7852C109.31 38.288 108.987 39.6208 108.342 40.7834C107.697 41.9319 106.751 42.8322 105.505 43.4844C104.274 44.1224 102.8 44.4414 101.085 44.4414ZM101.085 42.2083C102.756 42.2083 104.054 41.7263 104.977 40.7622C105.901 39.7839 106.363 38.4582 106.363 36.7852C106.363 35.0979 105.879 33.7723 104.911 32.8082C103.959 31.844 102.61 31.362 100.865 31.362C99.2669 31.362 98.0207 31.8582 97.1264 32.8507C96.2467 33.829 95.8069 35.1405 95.8069 36.7852C95.8069 38.4582 96.2687 39.7839 97.1924 40.7622C98.116 41.7263 99.4135 42.2083 101.085 42.2083Z" fill="white"/>
<path d="M116.142 44.4414C114.97 44.4414 113.877 44.2287 112.866 43.8034C111.854 43.3639 111.033 42.7542 110.403 41.9744C110.212 41.7334 110.117 41.4852 110.117 41.23C110.117 40.8898 110.285 40.5778 110.622 40.2943C110.857 40.11 111.128 40.0178 111.436 40.0178C111.876 40.0178 112.265 40.2305 112.602 40.6558C112.968 41.1379 113.459 41.5136 114.075 41.783C114.706 42.0524 115.395 42.1871 116.142 42.1871C117.037 42.1871 117.696 41.946 118.122 41.464C118.547 40.9819 118.759 40.2446 118.759 39.2522V30.4049C118.759 30.008 118.891 29.696 119.155 29.4692C119.419 29.2423 119.771 29.1289 120.211 29.1289C120.651 29.1289 121.003 29.2494 121.266 29.4905C121.545 29.7173 121.684 30.0221 121.684 30.4049V39.1671C121.684 40.2305 121.457 41.1591 121.003 41.9531C120.548 42.7471 119.903 43.3639 119.067 43.8034C118.232 44.2287 117.257 44.4414 116.142 44.4414Z" fill="white"/>
<path d="M127.546 44.2287C126.432 44.2287 125.567 43.9452 124.951 43.378C124.335 42.8109 124.027 42.0169 124.027 40.9961V32.4891C124.027 31.4967 124.321 30.724 124.907 30.171C125.508 29.6181 126.336 29.3416 127.392 29.3416H134.231C134.671 29.3416 135.009 29.4408 135.243 29.6393C135.478 29.8236 135.595 30.093 135.595 30.4475C135.595 30.7878 135.47 31.0571 135.221 31.2556C134.987 31.44 134.657 31.5321 134.231 31.5321H127.898C127.605 31.5321 127.37 31.6243 127.194 31.8086C127.033 31.9929 126.952 32.2481 126.952 32.5742V35.5304H132.56C133 35.5304 133.337 35.6296 133.572 35.8281C133.806 36.0124 133.924 36.2818 133.924 36.6363C133.924 36.9766 133.799 37.2459 133.55 37.4444C133.315 37.6288 132.985 37.7209 132.56 37.7209H126.952V40.9961C126.952 41.3222 127.033 41.5774 127.194 41.7617C127.37 41.946 127.605 42.0382 127.898 42.0382H134.715C135.155 42.0382 135.492 42.1374 135.727 42.3359C135.962 42.5203 136.079 42.7896 136.079 43.1441C136.079 43.4844 135.954 43.7538 135.705 43.9523C135.47 44.1366 135.14 44.2287 134.715 44.2287H127.546Z" fill="white"/>
<path d="M145.194 44.4414C143.537 44.4414 142.1 44.1366 140.883 43.5269C139.666 42.9172 138.735 42.0382 138.09 40.8898C137.445 39.7413 137.123 38.3802 137.123 36.8064C137.123 35.2326 137.445 33.8715 138.09 32.7231C138.735 31.5605 139.659 30.6743 140.861 30.0647C142.078 29.4408 143.508 29.1289 145.15 29.1289C146.513 29.1289 147.774 29.3558 148.932 29.8095C150.091 30.2632 150.948 30.8657 151.505 31.6172C151.681 31.844 151.769 32.078 151.769 32.319C151.769 32.6735 151.571 32.9925 151.175 33.276C151 33.4036 150.78 33.4674 150.516 33.4674C150.296 33.4674 150.076 33.4249 149.856 33.3398C149.636 33.2406 149.453 33.1059 149.306 32.9358C148.808 32.3828 148.229 31.9858 147.569 31.7448C146.909 31.4896 146.103 31.362 145.15 31.362C143.552 31.362 142.305 31.844 141.411 32.8082C140.517 33.7581 140.07 35.0909 140.07 36.8064C140.07 38.5078 140.517 39.8335 141.411 40.7834C142.32 41.7334 143.581 42.2083 145.194 42.2083C147.041 42.2083 148.514 41.6837 149.614 40.6345C150.069 40.2234 150.486 40.0178 150.868 40.0178C151.131 40.0178 151.373 40.1029 151.593 40.273C151.931 40.5566 152.099 40.8685 152.099 41.2088C152.099 41.464 152.004 41.7121 151.813 41.9531C151.183 42.7329 150.281 43.3426 149.108 43.7821C147.95 44.2216 146.645 44.4414 145.194 44.4414Z" fill="white"/>
<path d="M159.978 44.4414C159.539 44.4414 159.187 44.328 158.923 44.1011C158.659 43.8743 158.527 43.5624 158.527 43.1654V31.5321H154.282C153.857 31.5321 153.52 31.44 153.271 31.2556C153.036 31.0571 152.919 30.7878 152.919 30.4475C152.919 30.093 153.036 29.8236 153.271 29.6393C153.505 29.4408 153.843 29.3416 154.282 29.3416H165.696C166.136 29.3416 166.473 29.4408 166.708 29.6393C166.942 29.8236 167.06 30.093 167.06 30.4475C167.06 30.7878 166.935 31.0571 166.686 31.2556C166.451 31.44 166.121 31.5321 165.696 31.5321H161.452V43.1654C161.452 43.5482 161.313 43.8601 161.034 44.1011C160.77 44.328 160.418 44.4414 159.978 44.4414Z" fill="white"/>
<path d="M175.436 44.4414C173.721 44.4414 172.24 44.1224 170.994 43.4844C169.762 42.8322 168.824 41.9319 168.179 40.7834C167.534 39.6208 167.211 38.288 167.211 36.7852C167.211 35.2823 167.534 33.9566 168.179 32.8082C168.824 31.6455 169.762 30.7452 170.994 30.1072C172.24 29.455 173.721 29.1289 175.436 29.1289C177.151 29.1289 178.625 29.455 179.856 30.1072C181.103 30.7452 182.048 31.6455 182.693 32.8082C183.338 33.9566 183.661 35.2823 183.661 36.7852C183.661 38.288 183.338 39.6208 182.693 40.7834C182.048 41.9319 181.103 42.8322 179.856 43.4844C178.625 44.1224 177.151 44.4414 175.436 44.4414ZM175.436 42.2083C177.107 42.2083 178.405 41.7263 179.329 40.7622C180.252 39.7839 180.714 38.4582 180.714 36.7852C180.714 35.0979 180.23 33.7723 179.263 32.8082C178.31 31.844 176.961 31.362 175.216 31.362C173.618 31.362 172.372 31.8582 171.477 32.8507C170.598 33.829 170.158 35.1405 170.158 36.7852C170.158 38.4582 170.62 39.7839 171.543 40.7622C172.467 41.7263 173.765 42.2083 175.436 42.2083Z" fill="white"/>
<path d="M185.901 32.4891C185.901 31.4967 186.194 30.724 186.78 30.171C187.381 29.6181 188.21 29.3416 189.265 29.3416H193.18C195.364 29.3416 197.014 29.7527 198.128 30.5751C199.242 31.3974 199.799 32.6238 199.799 34.2543C199.799 35.7714 199.33 36.9553 198.392 37.806C197.468 38.6567 196.222 39.082 194.653 39.082L197.996 42.2934C198.26 42.5486 198.392 42.8393 198.392 43.1654C198.392 43.5056 198.238 43.8034 197.93 44.0586C197.608 44.2996 197.292 44.4201 196.984 44.4201C196.559 44.4201 196.171 44.2358 195.819 43.8672L191.069 39.1671H188.826V43.1654C188.826 43.5624 188.686 43.8743 188.408 44.1011C188.129 44.328 187.777 44.4414 187.352 44.4414C186.912 44.4414 186.56 44.328 186.296 44.1011C186.033 43.8743 185.901 43.5624 185.901 43.1654V32.4891ZM193.092 36.9766C194.06 36.9766 194.815 36.8844 195.357 36.7001C195.9 36.5158 196.281 36.2322 196.501 35.8494C196.735 35.4524 196.853 34.9207 196.853 34.2543C196.853 33.2902 196.545 32.5955 195.929 32.1701C195.328 31.7448 194.382 31.5321 193.092 31.5321H189.771C189.478 31.5321 189.243 31.6243 189.067 31.8086C188.906 31.9929 188.826 32.2481 188.826 32.5742V36.9766H193.092Z" fill="white"/>
<defs>
<clipPath id="clip0_247_1504">
<rect width="49.2308" height="49" fill="white"/>
</clipPath>
</defs>
</svg>
